<mxfile host="app.diagrams.net" agent="Mozilla/5.0 (Macintosh; Intel Mac OS X 10_15_7) AppleWebKit/537.36 (KHTML, like Gecko) Chrome/133.0.0.0 Safari/537.36" version="26.1.0" pages="2">
  <diagram id="WcyoWNrCj217NDLk2jZd" name="Structure">
    <mxGraphModel dx="1908" dy="2360" grid="0" gridSize="10" guides="1" tooltips="1" connect="1" arrows="1" fold="1" page="0" pageScale="1" pageWidth="827" pageHeight="1169" math="0" shadow="0">
      <root>
        <mxCell id="0" />
        <mxCell id="1" parent="0" />
        <mxCell id="lFQlOqsMQbjmDPC1cxD2-2" value="" style="edgeStyle=none;curved=1;rounded=0;orthogonalLoop=1;jettySize=auto;html=1;fontSize=12;startSize=8;endSize=8;" parent="1" source="GXsP5ZIlZGnPQ4NGN8no-14" target="lFQlOqsMQbjmDPC1cxD2-1" edge="1">
          <mxGeometry relative="1" as="geometry" />
        </mxCell>
        <mxCell id="ITl-ACBuqT6B9tDNnJN2-1" value="Depression" style="ellipse;whiteSpace=wrap;html=1;" parent="1" vertex="1">
          <mxGeometry x="-109" y="105" width="120" height="80" as="geometry" />
        </mxCell>
        <mxCell id="lFQlOqsMQbjmDPC1cxD2-1" value="Sucidal" style="ellipse;whiteSpace=wrap;html=1;" parent="1" vertex="1">
          <mxGeometry x="-109" y="301" width="120" height="80" as="geometry" />
        </mxCell>
        <mxCell id="eZCal6oqM1fCCTEyqUuY-2" value="" style="edgeStyle=none;curved=1;rounded=0;orthogonalLoop=1;jettySize=auto;html=1;fontSize=12;startSize=8;endSize=8;" parent="1" source="GXsP5ZIlZGnPQ4NGN8no-36" target="ITl-ACBuqT6B9tDNnJN2-1" edge="1">
          <mxGeometry relative="1" as="geometry" />
        </mxCell>
        <mxCell id="eZCal6oqM1fCCTEyqUuY-1" value="FamilyMentalIllness" style="ellipse;whiteSpace=wrap;html=1;" parent="1" vertex="1">
          <mxGeometry x="152" y="10" width="120" height="80" as="geometry" />
        </mxCell>
        <mxCell id="yzZGA_0KA8XVbKZ_i8Tn-2" style="edgeStyle=none;curved=1;rounded=0;orthogonalLoop=1;jettySize=auto;html=1;fontSize=12;startSize=8;endSize=8;" parent="1" source="GXsP5ZIlZGnPQ4NGN8no-16" target="ITl-ACBuqT6B9tDNnJN2-1" edge="1">
          <mxGeometry relative="1" as="geometry" />
        </mxCell>
        <mxCell id="yzZGA_0KA8XVbKZ_i8Tn-1" value="Stress" style="ellipse;whiteSpace=wrap;html=1;strokeColor=#A50040;fillColor=#d80073;fontColor=#ffffff;" parent="1" vertex="1">
          <mxGeometry x="-328" y="-52" width="120" height="80" as="geometry" />
        </mxCell>
        <mxCell id="syIouRMHXwiDmhJBbLLR-2" value="" style="edgeStyle=none;curved=1;rounded=0;orthogonalLoop=1;jettySize=auto;html=1;fontSize=12;startSize=8;endSize=8;" parent="1" source="syIouRMHXwiDmhJBbLLR-1" target="yzZGA_0KA8XVbKZ_i8Tn-1" edge="1">
          <mxGeometry relative="1" as="geometry" />
        </mxCell>
        <mxCell id="GXsP5ZIlZGnPQ4NGN8no-22" style="edgeStyle=none;curved=1;rounded=0;orthogonalLoop=1;jettySize=auto;html=1;fontSize=12;startSize=8;endSize=8;" parent="1" source="GXsP5ZIlZGnPQ4NGN8no-18" target="yxkkAYbsik82qOFQB8Uj-1" edge="1">
          <mxGeometry relative="1" as="geometry" />
        </mxCell>
        <mxCell id="GXsP5ZIlZGnPQ4NGN8no-23" style="edgeStyle=none;curved=1;rounded=0;orthogonalLoop=1;jettySize=auto;html=1;fontSize=12;startSize=8;endSize=8;" parent="1" source="GXsP5ZIlZGnPQ4NGN8no-25" target="nojjep5-aE4Lgrpdetyy-1" edge="1">
          <mxGeometry relative="1" as="geometry" />
        </mxCell>
        <mxCell id="syIouRMHXwiDmhJBbLLR-1" value="FinancialStress" style="ellipse;whiteSpace=wrap;html=1;" parent="1" vertex="1">
          <mxGeometry x="-113" y="-422" width="120" height="80" as="geometry" />
        </mxCell>
        <mxCell id="nojjep5-aE4Lgrpdetyy-2" style="edgeStyle=none;curved=1;rounded=0;orthogonalLoop=1;jettySize=auto;html=1;fontSize=12;startSize=8;endSize=8;" parent="1" source="GXsP5ZIlZGnPQ4NGN8no-30" target="yzZGA_0KA8XVbKZ_i8Tn-1" edge="1">
          <mxGeometry relative="1" as="geometry" />
        </mxCell>
        <mxCell id="nojjep5-aE4Lgrpdetyy-1" value="SleepDuration" style="ellipse;whiteSpace=wrap;html=1;" parent="1" vertex="1">
          <mxGeometry x="-316" y="-261" width="120" height="80" as="geometry" />
        </mxCell>
        <mxCell id="yxkkAYbsik82qOFQB8Uj-2" style="rounded=0;orthogonalLoop=1;jettySize=auto;html=1;fontSize=12;startSize=8;endSize=8;" parent="1" source="GXsP5ZIlZGnPQ4NGN8no-19" target="yzZGA_0KA8XVbKZ_i8Tn-1" edge="1">
          <mxGeometry relative="1" as="geometry" />
        </mxCell>
        <mxCell id="yxkkAYbsik82qOFQB8Uj-1" value="DietaryHabits" style="ellipse;whiteSpace=wrap;html=1;" parent="1" vertex="1">
          <mxGeometry x="-31" y="-224" width="120" height="80" as="geometry" />
        </mxCell>
        <mxCell id="GXsP5ZIlZGnPQ4NGN8no-10" style="edgeStyle=none;curved=1;rounded=0;orthogonalLoop=1;jettySize=auto;html=1;fontSize=12;startSize=8;endSize=8;" parent="1" source="k-XJiA40x20d2hjay5rg-1" target="yzZGA_0KA8XVbKZ_i8Tn-1" edge="1">
          <mxGeometry relative="1" as="geometry" />
        </mxCell>
        <mxCell id="GXsP5ZIlZGnPQ4NGN8no-32" style="edgeStyle=none;curved=1;rounded=0;orthogonalLoop=1;jettySize=auto;html=1;fontSize=12;startSize=8;endSize=8;" parent="1" source="GXsP5ZIlZGnPQ4NGN8no-33" target="nojjep5-aE4Lgrpdetyy-1" edge="1">
          <mxGeometry relative="1" as="geometry" />
        </mxCell>
        <mxCell id="k-XJiA40x20d2hjay5rg-1" value="AcademicPressure" style="ellipse;whiteSpace=wrap;html=1;" parent="1" vertex="1">
          <mxGeometry x="-545" y="-400" width="120" height="80" as="geometry" />
        </mxCell>
        <mxCell id="DfTlRrW0OWkDcxO0tE6H-1" style="edgeStyle=none;curved=1;rounded=0;orthogonalLoop=1;jettySize=auto;html=1;fontSize=12;startSize=8;endSize=8;" parent="1" source="5yAgE6kO6MDElDOg-oXG-1" target="nojjep5-aE4Lgrpdetyy-1" edge="1">
          <mxGeometry relative="1" as="geometry" />
        </mxCell>
        <mxCell id="bjlW_9jh4lICVOw2gdS2-2" style="edgeStyle=none;curved=1;rounded=0;orthogonalLoop=1;jettySize=auto;html=1;fontSize=12;startSize=8;endSize=8;" parent="1" source="5yAgE6kO6MDElDOg-oXG-1" target="bjlW_9jh4lICVOw2gdS2-1" edge="1">
          <mxGeometry relative="1" as="geometry" />
        </mxCell>
        <mxCell id="5yAgE6kO6MDElDOg-oXG-1" value="StudyHours" style="ellipse;whiteSpace=wrap;html=1;" parent="1" vertex="1">
          <mxGeometry x="-268" y="-648" width="120" height="80" as="geometry" />
        </mxCell>
        <mxCell id="bjlW_9jh4lICVOw2gdS2-3" style="edgeStyle=none;curved=1;rounded=0;orthogonalLoop=1;jettySize=auto;html=1;fontSize=12;startSize=8;endSize=8;" parent="1" source="bjlW_9jh4lICVOw2gdS2-1" target="k-XJiA40x20d2hjay5rg-1" edge="1">
          <mxGeometry relative="1" as="geometry" />
        </mxCell>
        <mxCell id="bjlW_9jh4lICVOw2gdS2-1" value="CGPA" style="ellipse;whiteSpace=wrap;html=1;" parent="1" vertex="1">
          <mxGeometry x="-490" y="-572" width="120" height="80" as="geometry" />
        </mxCell>
        <mxCell id="qGiuJrbiiLy9XwnGjOmM-1" style="edgeStyle=none;curved=1;rounded=0;orthogonalLoop=1;jettySize=auto;html=1;fontSize=12;startSize=8;endSize=8;" parent="1" source="Z7bvLgFg-vR1_hrqvqj--1" target="k-XJiA40x20d2hjay5rg-1" edge="1">
          <mxGeometry relative="1" as="geometry">
            <mxPoint x="-784" y="-187" as="targetPoint" />
          </mxGeometry>
        </mxCell>
        <mxCell id="Z7bvLgFg-vR1_hrqvqj--1" value="StudySatisfaction" style="ellipse;whiteSpace=wrap;html=1;" parent="1" vertex="1">
          <mxGeometry x="-765" y="-459" width="120" height="80" as="geometry" />
        </mxCell>
        <mxCell id="wzIFcH1Ejrc5vpYkv77M-2" style="edgeStyle=none;curved=1;rounded=0;orthogonalLoop=1;jettySize=auto;html=1;fontSize=12;startSize=8;endSize=8;" parent="1" source="9cPAKN-D0I-eIag8tM46-1" target="k-XJiA40x20d2hjay5rg-1" edge="1">
          <mxGeometry relative="1" as="geometry" />
        </mxCell>
        <mxCell id="9cPAKN-D0I-eIag8tM46-1" value="EducationLevel" style="ellipse;whiteSpace=wrap;html=1;" parent="1" vertex="1">
          <mxGeometry x="-629" y="-572" width="120" height="80" as="geometry" />
        </mxCell>
        <mxCell id="GBL2whJBHdj1C60OYlgL-2" style="edgeStyle=none;curved=1;rounded=0;orthogonalLoop=1;jettySize=auto;html=1;fontSize=12;startSize=8;endSize=8;" parent="1" source="GBL2whJBHdj1C60OYlgL-1" target="syIouRMHXwiDmhJBbLLR-1" edge="1">
          <mxGeometry relative="1" as="geometry" />
        </mxCell>
        <mxCell id="GBL2whJBHdj1C60OYlgL-1" value="Regions" style="ellipse;whiteSpace=wrap;html=1;" parent="1" vertex="1">
          <mxGeometry x="71" y="-648" width="120" height="80" as="geometry" />
        </mxCell>
        <mxCell id="4BvWuHmgGthvBxXCvbnV-2" style="edgeStyle=none;curved=1;rounded=0;orthogonalLoop=1;jettySize=auto;html=1;fontSize=12;startSize=8;endSize=8;" parent="1" source="GXsP5ZIlZGnPQ4NGN8no-6" target="syIouRMHXwiDmhJBbLLR-1" edge="1">
          <mxGeometry relative="1" as="geometry" />
        </mxCell>
        <mxCell id="GXsP5ZIlZGnPQ4NGN8no-35" style="edgeStyle=none;curved=1;rounded=0;orthogonalLoop=1;jettySize=auto;html=1;fontSize=12;startSize=8;endSize=8;" parent="1" source="GXsP5ZIlZGnPQ4NGN8no-39" target="ITl-ACBuqT6B9tDNnJN2-1" edge="1">
          <mxGeometry relative="1" as="geometry">
            <Array as="points">
              <mxPoint x="230" y="-110" />
            </Array>
          </mxGeometry>
        </mxCell>
        <mxCell id="4BvWuHmgGthvBxXCvbnV-1" value="Gender" style="ellipse;whiteSpace=wrap;html=1;" parent="1" vertex="1">
          <mxGeometry x="-98" y="-648" width="120" height="80" as="geometry" />
        </mxCell>
        <mxCell id="GXsP5ZIlZGnPQ4NGN8no-11" style="edgeStyle=none;curved=1;rounded=0;orthogonalLoop=1;jettySize=auto;html=1;fontSize=12;startSize=8;endSize=8;" parent="1" source="GXsP5ZIlZGnPQ4NGN8no-12" target="yxkkAYbsik82qOFQB8Uj-1" edge="1">
          <mxGeometry relative="1" as="geometry" />
        </mxCell>
        <mxCell id="GXsP5ZIlZGnPQ4NGN8no-38" style="edgeStyle=none;curved=1;rounded=0;orthogonalLoop=1;jettySize=auto;html=1;fontSize=12;startSize=8;endSize=8;" parent="1" source="GXsP5ZIlZGnPQ4NGN8no-41" target="ITl-ACBuqT6B9tDNnJN2-1" edge="1">
          <mxGeometry relative="1" as="geometry" />
        </mxCell>
        <mxCell id="GXsP5ZIlZGnPQ4NGN8no-1" value="Age" style="ellipse;whiteSpace=wrap;html=1;" parent="1" vertex="1">
          <mxGeometry x="240" y="-648" width="120" height="80" as="geometry" />
        </mxCell>
        <mxCell id="GXsP5ZIlZGnPQ4NGN8no-8" value="" style="edgeStyle=none;curved=1;rounded=0;orthogonalLoop=1;jettySize=auto;html=1;fontSize=12;startSize=8;endSize=8;" parent="1" source="4BvWuHmgGthvBxXCvbnV-1" target="GXsP5ZIlZGnPQ4NGN8no-6" edge="1">
          <mxGeometry relative="1" as="geometry">
            <mxPoint x="-39" y="-568" as="sourcePoint" />
            <mxPoint x="-48" y="-259" as="targetPoint" />
          </mxGeometry>
        </mxCell>
        <UserObject label="Link" link="https://www.tandfonline.com/doi/full/10.1080/00036846.2023.2273241" linkTarget="_blank" id="GXsP5ZIlZGnPQ4NGN8no-6">
          <mxCell style="text;html=1;strokeColor=none;fillColor=none;whiteSpace=wrap;align=center;verticalAlign=middle;fontColor=#0000EE;fontStyle=4;" parent="1" vertex="1">
            <mxGeometry x="-79" y="-526" width="60" height="40" as="geometry" />
          </mxCell>
        </UserObject>
        <mxCell id="GXsP5ZIlZGnPQ4NGN8no-13" value="" style="edgeStyle=none;curved=1;rounded=0;orthogonalLoop=1;jettySize=auto;html=1;fontSize=12;startSize=8;endSize=8;" parent="1" source="GXsP5ZIlZGnPQ4NGN8no-1" target="GXsP5ZIlZGnPQ4NGN8no-12" edge="1">
          <mxGeometry relative="1" as="geometry">
            <mxPoint x="274" y="-572" as="sourcePoint" />
            <mxPoint x="46" y="-257" as="targetPoint" />
          </mxGeometry>
        </mxCell>
        <UserObject label="Link" link="https://pubmed.ncbi.nlm.nih.gov/11426286/" linkTarget="_blank" id="GXsP5ZIlZGnPQ4NGN8no-12">
          <mxCell style="text;html=1;strokeColor=none;fillColor=none;whiteSpace=wrap;align=center;verticalAlign=middle;fontColor=#0000EE;fontStyle=4;" parent="1" vertex="1">
            <mxGeometry x="152" y="-433" width="60" height="40" as="geometry" />
          </mxCell>
        </UserObject>
        <mxCell id="GXsP5ZIlZGnPQ4NGN8no-15" value="" style="edgeStyle=none;curved=1;rounded=0;orthogonalLoop=1;jettySize=auto;html=1;fontSize=12;startSize=8;endSize=8;" parent="1" source="ITl-ACBuqT6B9tDNnJN2-1" target="GXsP5ZIlZGnPQ4NGN8no-14" edge="1">
          <mxGeometry relative="1" as="geometry">
            <mxPoint x="-49" y="185" as="sourcePoint" />
            <mxPoint x="-49" y="301" as="targetPoint" />
          </mxGeometry>
        </mxCell>
        <UserObject label="Link" link="https://www.psychologytoday.com/us/basics/suicide/mental-health-conditions-suicide" linkTarget="_blank" id="GXsP5ZIlZGnPQ4NGN8no-14">
          <mxCell style="text;html=1;strokeColor=none;fillColor=none;whiteSpace=wrap;align=center;verticalAlign=middle;fontColor=#0000EE;fontStyle=4;" parent="1" vertex="1">
            <mxGeometry x="-79" y="214" width="60" height="40" as="geometry" />
          </mxCell>
        </UserObject>
        <mxCell id="GXsP5ZIlZGnPQ4NGN8no-17" value="" style="edgeStyle=none;curved=1;rounded=0;orthogonalLoop=1;jettySize=auto;html=1;fontSize=12;startSize=8;endSize=8;" parent="1" source="yzZGA_0KA8XVbKZ_i8Tn-1" target="GXsP5ZIlZGnPQ4NGN8no-16" edge="1">
          <mxGeometry relative="1" as="geometry">
            <mxPoint x="-227" y="17" as="sourcePoint" />
            <mxPoint x="-90" y="116" as="targetPoint" />
          </mxGeometry>
        </mxCell>
        <UserObject label="Link" link="https://pmc.ncbi.nlm.nih.gov/articles/PMC3049314/" linkTarget="_blank" id="GXsP5ZIlZGnPQ4NGN8no-16">
          <mxCell style="text;html=1;strokeColor=none;fillColor=none;whiteSpace=wrap;align=center;verticalAlign=middle;fontColor=#0000EE;fontStyle=4;" parent="1" vertex="1">
            <mxGeometry x="-184" y="53" width="60" height="40" as="geometry" />
          </mxCell>
        </UserObject>
        <mxCell id="GXsP5ZIlZGnPQ4NGN8no-20" value="" style="rounded=0;orthogonalLoop=1;jettySize=auto;html=1;fontSize=12;startSize=8;endSize=8;" parent="1" source="yxkkAYbsik82qOFQB8Uj-1" target="GXsP5ZIlZGnPQ4NGN8no-19" edge="1">
          <mxGeometry relative="1" as="geometry">
            <mxPoint x="-21" y="-192" as="sourcePoint" />
            <mxPoint x="-227" y="-41" as="targetPoint" />
          </mxGeometry>
        </mxCell>
        <UserObject label="Link" link="https://www.tandfonline.com/doi/pdf/10.1080/07448481.2024.2418521" linkTarget="_blank" id="GXsP5ZIlZGnPQ4NGN8no-19">
          <mxCell style="text;html=1;strokeColor=none;fillColor=none;whiteSpace=wrap;align=center;verticalAlign=middle;fontColor=#0000EE;fontStyle=4;" parent="1" vertex="1">
            <mxGeometry x="-155" y="-115" width="60" height="40" as="geometry" />
          </mxCell>
        </UserObject>
        <mxCell id="GXsP5ZIlZGnPQ4NGN8no-26" value="" style="edgeStyle=none;curved=1;rounded=0;orthogonalLoop=1;jettySize=auto;html=1;fontSize=12;startSize=8;endSize=8;" parent="1" source="syIouRMHXwiDmhJBbLLR-1" target="GXsP5ZIlZGnPQ4NGN8no-25" edge="1">
          <mxGeometry relative="1" as="geometry">
            <mxPoint x="-112" y="-291" as="sourcePoint" />
            <mxPoint x="-207" y="-245" as="targetPoint" />
          </mxGeometry>
        </mxCell>
        <UserObject label="Link" link="https://www.mdpi.com/2076-328X/11/5/69" linkTarget="_blank" id="GXsP5ZIlZGnPQ4NGN8no-25">
          <mxCell style="text;html=1;strokeColor=none;fillColor=none;whiteSpace=wrap;align=center;verticalAlign=middle;fontColor=#0000EE;fontStyle=4;" parent="1" vertex="1">
            <mxGeometry x="-191" y="-320" width="60" height="40" as="geometry" />
          </mxCell>
        </UserObject>
        <mxCell id="GXsP5ZIlZGnPQ4NGN8no-29" value="" style="edgeStyle=none;curved=1;rounded=0;orthogonalLoop=1;jettySize=auto;html=1;fontSize=12;startSize=8;endSize=8;" parent="1" source="syIouRMHXwiDmhJBbLLR-1" target="GXsP5ZIlZGnPQ4NGN8no-18" edge="1">
          <mxGeometry relative="1" as="geometry">
            <mxPoint x="-17" y="-321" as="sourcePoint" />
            <mxPoint x="16" y="-223" as="targetPoint" />
          </mxGeometry>
        </mxCell>
        <UserObject label="Link" link="https://www.mdpi.com/2076-328X/11/5/69" linkTarget="_blank" id="GXsP5ZIlZGnPQ4NGN8no-18">
          <mxCell style="text;html=1;strokeColor=none;fillColor=none;whiteSpace=wrap;align=center;verticalAlign=middle;fontColor=#0000EE;fontStyle=4;" parent="1" vertex="1">
            <mxGeometry x="-41" y="-305" width="60" height="40" as="geometry" />
          </mxCell>
        </UserObject>
        <mxCell id="GXsP5ZIlZGnPQ4NGN8no-31" value="" style="edgeStyle=none;curved=1;rounded=0;orthogonalLoop=1;jettySize=auto;html=1;fontSize=12;startSize=8;endSize=8;" parent="1" source="nojjep5-aE4Lgrpdetyy-1" target="GXsP5ZIlZGnPQ4NGN8no-30" edge="1">
          <mxGeometry relative="1" as="geometry">
            <mxPoint x="-258" y="-181" as="sourcePoint" />
            <mxPoint x="-266" y="-52" as="targetPoint" />
          </mxGeometry>
        </mxCell>
        <UserObject label="Link" link="https://academic.oup.com/sleep/article/47/Supplement_1/A57/7654261" linkTarget="_blank" id="GXsP5ZIlZGnPQ4NGN8no-30">
          <mxCell style="text;html=1;strokeColor=none;fillColor=none;whiteSpace=wrap;align=center;verticalAlign=middle;fontColor=#0000EE;fontStyle=4;" parent="1" vertex="1">
            <mxGeometry x="-295" y="-136" width="60" height="40" as="geometry" />
          </mxCell>
        </UserObject>
        <mxCell id="GXsP5ZIlZGnPQ4NGN8no-34" value="" style="edgeStyle=none;curved=1;rounded=0;orthogonalLoop=1;jettySize=auto;html=1;fontSize=12;startSize=8;endSize=8;" parent="1" source="k-XJiA40x20d2hjay5rg-1" target="GXsP5ZIlZGnPQ4NGN8no-33" edge="1">
          <mxGeometry relative="1" as="geometry">
            <mxPoint x="-441" y="-333" as="sourcePoint" />
            <mxPoint x="-300" y="-248" as="targetPoint" />
          </mxGeometry>
        </mxCell>
        <UserObject label="Link" link="https://www.academia.edu/126545022/The_Relationship_of_Academic_Stress_Sleep_Quality_and_Self_Esteem_Among_University_Students" id="GXsP5ZIlZGnPQ4NGN8no-33">
          <mxCell style="text;html=1;strokeColor=none;fillColor=none;whiteSpace=wrap;align=center;verticalAlign=middle;fontColor=#0000EE;fontStyle=4;" parent="1" vertex="1">
            <mxGeometry x="-403" y="-312" width="60" height="40" as="geometry" />
          </mxCell>
        </UserObject>
        <mxCell id="GXsP5ZIlZGnPQ4NGN8no-37" value="" style="edgeStyle=none;curved=1;rounded=0;orthogonalLoop=1;jettySize=auto;html=1;fontSize=12;startSize=8;endSize=8;" parent="1" source="eZCal6oqM1fCCTEyqUuY-1" target="GXsP5ZIlZGnPQ4NGN8no-36" edge="1">
          <mxGeometry relative="1" as="geometry">
            <mxPoint x="159" y="69" as="sourcePoint" />
            <mxPoint x="4" y="126" as="targetPoint" />
          </mxGeometry>
        </mxCell>
        <UserObject label="Link" link="https://www.cambridge.org/core/journals/psychological-medicine/article/familial-risk-for-depressive-and-anxiety-disorders-associations-with-genetic-clinical-and-psychosocial-vulnerabilities/E48CB3FAAF084061C759CB440D2E8398" linkTarget="_blank" id="GXsP5ZIlZGnPQ4NGN8no-36">
          <mxCell style="text;html=1;strokeColor=none;fillColor=none;whiteSpace=wrap;align=center;verticalAlign=middle;fontColor=#0000EE;fontStyle=4;" parent="1" vertex="1">
            <mxGeometry x="61" y="77" width="60" height="40" as="geometry" />
          </mxCell>
        </UserObject>
        <mxCell id="GXsP5ZIlZGnPQ4NGN8no-40" value="" style="edgeStyle=none;curved=1;rounded=0;orthogonalLoop=1;jettySize=auto;html=1;fontSize=12;startSize=8;endSize=8;" parent="1" source="4BvWuHmgGthvBxXCvbnV-1" target="GXsP5ZIlZGnPQ4NGN8no-39" edge="1">
          <mxGeometry relative="1" as="geometry">
            <mxPoint x="-16" y="-571" as="sourcePoint" />
            <mxPoint x="-14" y="113" as="targetPoint" />
            <Array as="points">
              <mxPoint x="84" y="-404" />
              <mxPoint x="192" y="-231" />
            </Array>
          </mxGeometry>
        </mxCell>
        <UserObject label="Link" link="https://www.cambridge.org/core/journals/the-british-journal-of-psychiatry/article/gender-differences-in-depression/0770B51752F17A5A081F9878B0952608" linkTarget="_blank" id="GXsP5ZIlZGnPQ4NGN8no-39">
          <mxCell style="text;html=1;strokeColor=none;fillColor=none;whiteSpace=wrap;align=center;verticalAlign=middle;fontColor=#0000EE;fontStyle=4;" parent="1" vertex="1">
            <mxGeometry x="180" y="-176" width="60" height="40" as="geometry" />
          </mxCell>
        </UserObject>
        <mxCell id="GXsP5ZIlZGnPQ4NGN8no-42" value="" style="edgeStyle=none;curved=1;rounded=0;orthogonalLoop=1;jettySize=auto;html=1;fontSize=12;startSize=8;endSize=8;" parent="1" source="GXsP5ZIlZGnPQ4NGN8no-1" target="GXsP5ZIlZGnPQ4NGN8no-41" edge="1">
          <mxGeometry relative="1" as="geometry">
            <mxPoint x="282" y="-570" as="sourcePoint" />
            <mxPoint x="-31" y="107" as="targetPoint" />
          </mxGeometry>
        </mxCell>
        <UserObject label="Link" link="https://www.cambridge.org/core/journals/psychological-medicine/article/abs/age-differences-in-major-depression-results-from-the-national-comorbidity-survey-replication-ncsr/1DD685D5874EC40C25CF047DAA15E2F8" linkTarget="_blank" id="GXsP5ZIlZGnPQ4NGN8no-41">
          <mxCell style="text;html=1;strokeColor=none;fillColor=none;whiteSpace=wrap;align=center;verticalAlign=middle;fontColor=#0000EE;fontStyle=4;" parent="1" vertex="1">
            <mxGeometry x="22" y="-92" width="60" height="40" as="geometry" />
          </mxCell>
        </UserObject>
      </root>
    </mxGraphModel>
  </diagram>
  <diagram name="structure1" id="wblyXvbheJLdnVPlYZN5">
    <mxGraphModel dx="2740" dy="1584" grid="0" gridSize="10" guides="1" tooltips="1" connect="1" arrows="1" fold="1" page="0" pageScale="1" pageWidth="827" pageHeight="1169" math="0" shadow="0">
      <root>
        <mxCell id="30rdmy4WEm_N9rkbQdkO-0" />
        <mxCell id="30rdmy4WEm_N9rkbQdkO-1" parent="30rdmy4WEm_N9rkbQdkO-0" />
        <mxCell id="30rdmy4WEm_N9rkbQdkO-2" value="" style="edgeStyle=none;curved=1;rounded=0;orthogonalLoop=1;jettySize=auto;html=1;fontSize=12;startSize=8;endSize=8;" edge="1" parent="30rdmy4WEm_N9rkbQdkO-1" source="30rdmy4WEm_N9rkbQdkO-44" target="30rdmy4WEm_N9rkbQdkO-4">
          <mxGeometry relative="1" as="geometry" />
        </mxCell>
        <mxCell id="30rdmy4WEm_N9rkbQdkO-3" value="Depression" style="ellipse;whiteSpace=wrap;html=1;" vertex="1" parent="30rdmy4WEm_N9rkbQdkO-1">
          <mxGeometry x="-109" y="105" width="120" height="80" as="geometry" />
        </mxCell>
        <mxCell id="30rdmy4WEm_N9rkbQdkO-4" value="Sucidal" style="ellipse;whiteSpace=wrap;html=1;" vertex="1" parent="30rdmy4WEm_N9rkbQdkO-1">
          <mxGeometry x="-109" y="301" width="120" height="80" as="geometry" />
        </mxCell>
        <mxCell id="30rdmy4WEm_N9rkbQdkO-5" value="" style="edgeStyle=none;curved=1;rounded=0;orthogonalLoop=1;jettySize=auto;html=1;fontSize=12;startSize=8;endSize=8;" edge="1" parent="30rdmy4WEm_N9rkbQdkO-1" source="30rdmy4WEm_N9rkbQdkO-58" target="30rdmy4WEm_N9rkbQdkO-3">
          <mxGeometry relative="1" as="geometry">
            <Array as="points">
              <mxPoint x="51" y="110" />
            </Array>
          </mxGeometry>
        </mxCell>
        <mxCell id="30rdmy4WEm_N9rkbQdkO-6" value="FamilyMentalIllness" style="ellipse;whiteSpace=wrap;html=1;" vertex="1" parent="30rdmy4WEm_N9rkbQdkO-1">
          <mxGeometry x="152" y="10" width="120" height="80" as="geometry" />
        </mxCell>
        <mxCell id="30rdmy4WEm_N9rkbQdkO-7" style="edgeStyle=none;curved=1;rounded=0;orthogonalLoop=1;jettySize=auto;html=1;fontSize=12;startSize=8;endSize=8;" edge="1" parent="30rdmy4WEm_N9rkbQdkO-1" source="30rdmy4WEm_N9rkbQdkO-46" target="30rdmy4WEm_N9rkbQdkO-3">
          <mxGeometry relative="1" as="geometry" />
        </mxCell>
        <mxCell id="30rdmy4WEm_N9rkbQdkO-8" value="Stress" style="ellipse;whiteSpace=wrap;html=1;strokeColor=#A50040;fillColor=#d80073;fontColor=#ffffff;" vertex="1" parent="30rdmy4WEm_N9rkbQdkO-1">
          <mxGeometry x="-328" y="-52" width="120" height="80" as="geometry" />
        </mxCell>
        <mxCell id="30rdmy4WEm_N9rkbQdkO-9" value="" style="edgeStyle=none;curved=1;rounded=0;orthogonalLoop=1;jettySize=auto;html=1;fontSize=12;startSize=8;endSize=8;" edge="1" parent="30rdmy4WEm_N9rkbQdkO-1" source="30rdmy4WEm_N9rkbQdkO-12" target="30rdmy4WEm_N9rkbQdkO-8">
          <mxGeometry relative="1" as="geometry" />
        </mxCell>
        <mxCell id="veqqgI0ZNA237jeocADM-7" style="edgeStyle=orthogonalEdgeStyle;rounded=0;orthogonalLoop=1;jettySize=auto;html=1;" edge="1" parent="30rdmy4WEm_N9rkbQdkO-1" source="30rdmy4WEm_N9rkbQdkO-12" target="30rdmy4WEm_N9rkbQdkO-19">
          <mxGeometry relative="1" as="geometry" />
        </mxCell>
        <mxCell id="pfaEI709FviGbyKwiSnO-17" style="edgeStyle=orthogonalEdgeStyle;rounded=0;orthogonalLoop=1;jettySize=auto;html=1;entryX=0;entryY=0.5;entryDx=0;entryDy=0;" edge="1" parent="30rdmy4WEm_N9rkbQdkO-1" source="30rdmy4WEm_N9rkbQdkO-12" target="30rdmy4WEm_N9rkbQdkO-16">
          <mxGeometry relative="1" as="geometry" />
        </mxCell>
        <mxCell id="30rdmy4WEm_N9rkbQdkO-12" value="FinancialStress" style="ellipse;whiteSpace=wrap;html=1;" vertex="1" parent="30rdmy4WEm_N9rkbQdkO-1">
          <mxGeometry x="-201" y="-533" width="120" height="80" as="geometry" />
        </mxCell>
        <mxCell id="pfaEI709FviGbyKwiSnO-3" style="edgeStyle=orthogonalEdgeStyle;rounded=0;orthogonalLoop=1;jettySize=auto;html=1;" edge="1" parent="30rdmy4WEm_N9rkbQdkO-1" source="30rdmy4WEm_N9rkbQdkO-14" target="30rdmy4WEm_N9rkbQdkO-8">
          <mxGeometry relative="1" as="geometry" />
        </mxCell>
        <mxCell id="30rdmy4WEm_N9rkbQdkO-14" value="SleepDuration" style="ellipse;whiteSpace=wrap;html=1;" vertex="1" parent="30rdmy4WEm_N9rkbQdkO-1">
          <mxGeometry x="-377" y="-282" width="120" height="67" as="geometry" />
        </mxCell>
        <mxCell id="pfaEI709FviGbyKwiSnO-1" style="edgeStyle=orthogonalEdgeStyle;rounded=0;orthogonalLoop=1;jettySize=auto;html=1;" edge="1" parent="30rdmy4WEm_N9rkbQdkO-1" source="30rdmy4WEm_N9rkbQdkO-16" target="30rdmy4WEm_N9rkbQdkO-3">
          <mxGeometry relative="1" as="geometry" />
        </mxCell>
        <mxCell id="pfaEI709FviGbyKwiSnO-2" value="like this because of&amp;nbsp;&lt;div&gt;correlation with suicide&lt;/div&gt;" style="edgeLabel;html=1;align=center;verticalAlign=middle;resizable=0;points=[];" vertex="1" connectable="0" parent="pfaEI709FviGbyKwiSnO-1">
          <mxGeometry x="0.0119" y="-3" relative="1" as="geometry">
            <mxPoint x="-1" as="offset" />
          </mxGeometry>
        </mxCell>
        <mxCell id="30rdmy4WEm_N9rkbQdkO-16" value="DietaryHabits" style="ellipse;whiteSpace=wrap;html=1;" vertex="1" parent="30rdmy4WEm_N9rkbQdkO-1">
          <mxGeometry x="-31" y="-224" width="120" height="80" as="geometry" />
        </mxCell>
        <mxCell id="30rdmy4WEm_N9rkbQdkO-17" style="edgeStyle=none;curved=1;rounded=0;orthogonalLoop=1;jettySize=auto;html=1;fontSize=12;startSize=8;endSize=8;" edge="1" parent="30rdmy4WEm_N9rkbQdkO-1" source="30rdmy4WEm_N9rkbQdkO-19" target="30rdmy4WEm_N9rkbQdkO-8">
          <mxGeometry relative="1" as="geometry" />
        </mxCell>
        <mxCell id="30rdmy4WEm_N9rkbQdkO-19" value="AcademicPressure" style="ellipse;whiteSpace=wrap;html=1;" vertex="1" parent="30rdmy4WEm_N9rkbQdkO-1">
          <mxGeometry x="-552" y="-392" width="120" height="80" as="geometry" />
        </mxCell>
        <mxCell id="veqqgI0ZNA237jeocADM-13" style="edgeStyle=orthogonalEdgeStyle;rounded=0;orthogonalLoop=1;jettySize=auto;html=1;" edge="1" parent="30rdmy4WEm_N9rkbQdkO-1" source="30rdmy4WEm_N9rkbQdkO-22" target="30rdmy4WEm_N9rkbQdkO-8">
          <mxGeometry relative="1" as="geometry" />
        </mxCell>
        <mxCell id="30rdmy4WEm_N9rkbQdkO-22" value="StudyHours" style="ellipse;whiteSpace=wrap;html=1;" vertex="1" parent="30rdmy4WEm_N9rkbQdkO-1">
          <mxGeometry x="-654" y="-103" width="120" height="80" as="geometry" />
        </mxCell>
        <mxCell id="30rdmy4WEm_N9rkbQdkO-23" style="edgeStyle=none;curved=1;rounded=0;orthogonalLoop=1;jettySize=auto;html=1;fontSize=12;startSize=8;endSize=8;" edge="1" parent="30rdmy4WEm_N9rkbQdkO-1" source="30rdmy4WEm_N9rkbQdkO-24" target="30rdmy4WEm_N9rkbQdkO-19">
          <mxGeometry relative="1" as="geometry" />
        </mxCell>
        <mxCell id="veqqgI0ZNA237jeocADM-3" style="edgeStyle=orthogonalEdgeStyle;rounded=0;orthogonalLoop=1;jettySize=auto;html=1;" edge="1" parent="30rdmy4WEm_N9rkbQdkO-1" source="30rdmy4WEm_N9rkbQdkO-24" target="30rdmy4WEm_N9rkbQdkO-26">
          <mxGeometry relative="1" as="geometry" />
        </mxCell>
        <mxCell id="30rdmy4WEm_N9rkbQdkO-24" value="CGPA" style="ellipse;whiteSpace=wrap;html=1;" vertex="1" parent="30rdmy4WEm_N9rkbQdkO-1">
          <mxGeometry x="-630" y="-566" width="120" height="80" as="geometry" />
        </mxCell>
        <mxCell id="30rdmy4WEm_N9rkbQdkO-25" style="edgeStyle=none;curved=1;rounded=0;orthogonalLoop=1;jettySize=auto;html=1;fontSize=12;startSize=8;endSize=8;" edge="1" parent="30rdmy4WEm_N9rkbQdkO-1" source="30rdmy4WEm_N9rkbQdkO-26" target="30rdmy4WEm_N9rkbQdkO-19">
          <mxGeometry relative="1" as="geometry">
            <mxPoint x="-784" y="-187" as="targetPoint" />
          </mxGeometry>
        </mxCell>
        <mxCell id="30rdmy4WEm_N9rkbQdkO-26" value="StudySatisfaction" style="ellipse;whiteSpace=wrap;html=1;" vertex="1" parent="30rdmy4WEm_N9rkbQdkO-1">
          <mxGeometry x="-736" y="-453" width="120" height="80" as="geometry" />
        </mxCell>
        <mxCell id="30rdmy4WEm_N9rkbQdkO-28" value="EducationLevel (alone for low correlation)" style="ellipse;whiteSpace=wrap;html=1;" vertex="1" parent="30rdmy4WEm_N9rkbQdkO-1">
          <mxGeometry x="-377" y="-480" width="120" height="80" as="geometry" />
        </mxCell>
        <mxCell id="30rdmy4WEm_N9rkbQdkO-32" value="Regions" style="ellipse;whiteSpace=wrap;html=1;" vertex="1" parent="30rdmy4WEm_N9rkbQdkO-1">
          <mxGeometry x="162" y="-732" width="120" height="80" as="geometry" />
        </mxCell>
        <mxCell id="pfaEI709FviGbyKwiSnO-10" style="edgeStyle=orthogonalEdgeStyle;rounded=0;orthogonalLoop=1;jettySize=auto;html=1;" edge="1" parent="30rdmy4WEm_N9rkbQdkO-1" source="30rdmy4WEm_N9rkbQdkO-35" target="30rdmy4WEm_N9rkbQdkO-16">
          <mxGeometry relative="1" as="geometry" />
        </mxCell>
        <mxCell id="30rdmy4WEm_N9rkbQdkO-35" value="Gender" style="ellipse;whiteSpace=wrap;html=1;" vertex="1" parent="30rdmy4WEm_N9rkbQdkO-1">
          <mxGeometry x="-98" y="-761" width="120" height="80" as="geometry" />
        </mxCell>
        <mxCell id="30rdmy4WEm_N9rkbQdkO-37" style="edgeStyle=none;curved=1;rounded=0;orthogonalLoop=1;jettySize=auto;html=1;fontSize=12;startSize=8;endSize=8;" edge="1" parent="30rdmy4WEm_N9rkbQdkO-1" source="30rdmy4WEm_N9rkbQdkO-62" target="30rdmy4WEm_N9rkbQdkO-3">
          <mxGeometry relative="1" as="geometry" />
        </mxCell>
        <mxCell id="veqqgI0ZNA237jeocADM-4" style="edgeStyle=orthogonalEdgeStyle;rounded=0;orthogonalLoop=1;jettySize=auto;html=1;" edge="1" parent="30rdmy4WEm_N9rkbQdkO-1" source="30rdmy4WEm_N9rkbQdkO-38" target="30rdmy4WEm_N9rkbQdkO-19">
          <mxGeometry relative="1" as="geometry" />
        </mxCell>
        <mxCell id="pfaEI709FviGbyKwiSnO-13" style="edgeStyle=orthogonalEdgeStyle;rounded=0;orthogonalLoop=1;jettySize=auto;html=1;" edge="1" parent="30rdmy4WEm_N9rkbQdkO-1" source="30rdmy4WEm_N9rkbQdkO-38" target="30rdmy4WEm_N9rkbQdkO-28">
          <mxGeometry relative="1" as="geometry" />
        </mxCell>
        <mxCell id="30rdmy4WEm_N9rkbQdkO-38" value="Age" style="ellipse;whiteSpace=wrap;html=1;" vertex="1" parent="30rdmy4WEm_N9rkbQdkO-1">
          <mxGeometry x="-314" y="-740" width="120" height="80" as="geometry" />
        </mxCell>
        <mxCell id="30rdmy4WEm_N9rkbQdkO-43" value="" style="edgeStyle=none;curved=1;rounded=0;orthogonalLoop=1;jettySize=auto;html=1;fontSize=12;startSize=8;endSize=8;" edge="1" parent="30rdmy4WEm_N9rkbQdkO-1" source="30rdmy4WEm_N9rkbQdkO-3" target="30rdmy4WEm_N9rkbQdkO-44">
          <mxGeometry relative="1" as="geometry">
            <mxPoint x="-49" y="185" as="sourcePoint" />
            <mxPoint x="-49" y="301" as="targetPoint" />
          </mxGeometry>
        </mxCell>
        <UserObject label="Link" link="https://www.psychologytoday.com/us/basics/suicide/mental-health-conditions-suicide" linkTarget="_blank" id="30rdmy4WEm_N9rkbQdkO-44">
          <mxCell style="text;html=1;strokeColor=none;fillColor=none;whiteSpace=wrap;align=center;verticalAlign=middle;fontColor=#0000EE;fontStyle=4;" vertex="1" parent="30rdmy4WEm_N9rkbQdkO-1">
            <mxGeometry x="-79" y="214" width="60" height="40" as="geometry" />
          </mxCell>
        </UserObject>
        <mxCell id="30rdmy4WEm_N9rkbQdkO-45" value="" style="edgeStyle=none;curved=1;rounded=0;orthogonalLoop=1;jettySize=auto;html=1;fontSize=12;startSize=8;endSize=8;" edge="1" parent="30rdmy4WEm_N9rkbQdkO-1" source="30rdmy4WEm_N9rkbQdkO-8" target="30rdmy4WEm_N9rkbQdkO-46">
          <mxGeometry relative="1" as="geometry">
            <mxPoint x="-227" y="17" as="sourcePoint" />
            <mxPoint x="-90" y="116" as="targetPoint" />
          </mxGeometry>
        </mxCell>
        <UserObject label="Link" link="https://pmc.ncbi.nlm.nih.gov/articles/PMC3049314/" linkTarget="_blank" id="30rdmy4WEm_N9rkbQdkO-46">
          <mxCell style="text;html=1;strokeColor=none;fillColor=none;whiteSpace=wrap;align=center;verticalAlign=middle;fontColor=#0000EE;fontStyle=4;" vertex="1" parent="30rdmy4WEm_N9rkbQdkO-1">
            <mxGeometry x="-184" y="53" width="60" height="40" as="geometry" />
          </mxCell>
        </UserObject>
        <mxCell id="30rdmy4WEm_N9rkbQdkO-57" value="" style="edgeStyle=none;curved=1;rounded=0;orthogonalLoop=1;jettySize=auto;html=1;fontSize=12;startSize=8;endSize=8;" edge="1" parent="30rdmy4WEm_N9rkbQdkO-1" source="30rdmy4WEm_N9rkbQdkO-6" target="30rdmy4WEm_N9rkbQdkO-58">
          <mxGeometry relative="1" as="geometry">
            <mxPoint x="159" y="69" as="sourcePoint" />
            <mxPoint x="4" y="126" as="targetPoint" />
          </mxGeometry>
        </mxCell>
        <UserObject label="Link" link="https://www.cambridge.org/core/journals/psychological-medicine/article/familial-risk-for-depressive-and-anxiety-disorders-associations-with-genetic-clinical-and-psychosocial-vulnerabilities/E48CB3FAAF084061C759CB440D2E8398" linkTarget="_blank" id="30rdmy4WEm_N9rkbQdkO-58">
          <mxCell style="text;html=1;strokeColor=none;fillColor=none;whiteSpace=wrap;align=center;verticalAlign=middle;fontColor=#0000EE;fontStyle=4;" vertex="1" parent="30rdmy4WEm_N9rkbQdkO-1">
            <mxGeometry x="61" y="77" width="60" height="40" as="geometry" />
          </mxCell>
        </UserObject>
        <mxCell id="30rdmy4WEm_N9rkbQdkO-61" value="" style="edgeStyle=none;curved=1;rounded=0;orthogonalLoop=1;jettySize=auto;html=1;fontSize=12;startSize=8;endSize=8;exitX=0.707;exitY=0.917;exitDx=0;exitDy=0;exitPerimeter=0;entryX=0.25;entryY=0;entryDx=0;entryDy=0;" edge="1" parent="30rdmy4WEm_N9rkbQdkO-1" source="30rdmy4WEm_N9rkbQdkO-38" target="30rdmy4WEm_N9rkbQdkO-62">
          <mxGeometry relative="1" as="geometry">
            <mxPoint x="-232.99738737498524" y="-651.9994294039248" as="sourcePoint" />
            <mxPoint x="44.75477707006348" y="-82.05" as="targetPoint" />
          </mxGeometry>
        </mxCell>
        <UserObject label="Link" link="https://www.cambridge.org/core/journals/psychological-medicine/article/abs/age-differences-in-major-depression-results-from-the-national-comorbidity-survey-replication-ncsr/1DD685D5874EC40C25CF047DAA15E2F8" linkTarget="_blank" id="30rdmy4WEm_N9rkbQdkO-62">
          <mxCell style="text;html=1;strokeColor=none;fillColor=none;whiteSpace=wrap;align=center;verticalAlign=middle;fontColor=#0000EE;fontStyle=4;" vertex="1" parent="30rdmy4WEm_N9rkbQdkO-1">
            <mxGeometry x="-184" y="-89" width="60" height="40" as="geometry" />
          </mxCell>
        </UserObject>
        <mxCell id="pfaEI709FviGbyKwiSnO-5" value="check sleepduration and studyhours on stress" style="shape=tape;whiteSpace=wrap;html=1;" vertex="1" parent="30rdmy4WEm_N9rkbQdkO-1">
          <mxGeometry x="-747" y="44" width="317" height="100" as="geometry" />
        </mxCell>
      </root>
    </mxGraphModel>
  </diagram>
</mxfile>
